<svg width="109" height="28" viewBox="0 0 109 28" fill="none" xmlns="http://www.w3.org/2000/svg">
<path d="M15.9432 8.55753H9.55611V6.5973C9.55611 5.68253 9.47443 5.0999 9.31108 4.84943C9.14773 4.59896 8.87547 4.47372 8.49432 4.47372C8.08049 4.47372 7.76468 4.64252 7.54688 4.98011C7.33996 5.31771 7.23651 5.82954 7.23651 6.51562C7.23651 7.39773 7.3563 8.06203 7.59588 8.50852C7.82457 8.95502 8.47254 9.49408 9.53977 10.1257C12.5999 11.9444 14.5275 13.4363 15.3224 14.6016C16.1174 15.7668 16.5149 17.6454 16.5149 20.2372C16.5149 22.1212 16.2917 23.5097 15.8452 24.4027C15.4096 25.2957 14.5601 26.0471 13.2969 26.657C12.0336 27.2559 10.5634 27.5554 8.88636 27.5554C7.04593 27.5554 5.4723 27.2069 4.16548 26.5099C2.86956 25.813 2.02012 24.9254 1.61719 23.8473C1.21425 22.7692 1.01278 21.2391 1.01278 19.2571V17.5256H7.39986V20.7436C7.39986 21.7346 7.48698 22.3717 7.66122 22.6548C7.84635 22.938 8.16761 23.0795 8.625 23.0795C9.08239 23.0795 9.41998 22.8999 9.63778 22.5405C9.86648 22.1811 9.98082 21.6475 9.98082 20.9396C9.98082 19.3823 9.76847 18.3641 9.34375 17.8849C8.90814 17.4058 7.83546 16.6053 6.12571 15.4837C4.41596 14.3511 3.28338 13.5289 2.72798 13.017C2.17259 12.5052 1.70975 11.7973 1.33949 10.8935C0.980114 9.98958 0.800426 8.83523 0.800426 7.4304C0.800426 5.40483 1.05634 3.92377 1.56818 2.98721C2.09091 2.05066 2.92945 1.32102 4.08381 0.798294C5.23816 0.264676 6.6321 -0.00213264 8.26563 -0.00213264C10.0516 -0.00213264 11.5708 0.286456 12.8232 0.863634C14.0864 1.44081 14.9195 2.17045 15.3224 3.05256C15.7363 3.92377 15.9432 5.41027 15.9432 7.51207V8.55753ZM34.5 0.553265V27H27.6229V15.892H25.5646V27H18.6875V0.553265H25.5646V10.0114H27.6229V0.553265H34.5ZM52.9915 16.0391C52.9915 18.6963 52.9261 20.5803 52.7955 21.6911C52.6757 22.791 52.2836 23.7983 51.6193 24.7131C50.9659 25.6278 50.0784 26.3303 48.9567 26.8203C47.835 27.3104 46.5282 27.5554 45.0362 27.5554C43.6205 27.5554 42.3464 27.3267 41.2138 26.8693C40.0921 26.401 39.1882 25.7041 38.5021 24.7784C37.8161 23.8527 37.4077 22.8454 37.277 21.7564C37.1463 20.6674 37.081 18.7616 37.081 16.0391V11.5142C37.081 8.85701 37.1409 6.97845 37.2607 5.87855C37.3913 4.76775 37.7834 3.75497 38.4368 2.8402C39.1011 1.92542 39.9941 1.22301 41.1158 0.732953C42.2375 0.242896 43.5443 -0.00213264 45.0362 -0.00213264C46.4519 -0.00213264 47.7206 0.232006 48.8423 0.700282C49.9749 1.15767 50.8842 1.84919 51.5703 2.77486C52.2564 3.70052 52.6648 4.70786 52.7955 5.79687C52.9261 6.88589 52.9915 8.79167 52.9915 11.5142V16.0391ZM46.1143 7.34872C46.1143 6.11813 46.0436 5.33404 45.902 4.99645C45.7713 4.64796 45.4936 4.47372 45.0689 4.47372C44.7095 4.47372 44.4318 4.61529 44.2358 4.89844C44.0507 5.17069 43.9581 5.98745 43.9581 7.34872V19.6982C43.9581 21.2337 44.018 22.1811 44.1378 22.5405C44.2685 22.8999 44.5625 23.0795 45.0199 23.0795C45.4882 23.0795 45.7876 22.8726 45.9183 22.4588C46.049 22.045 46.1143 21.0594 46.1143 19.5021V7.34872ZM55.5724 0.553265H62.4986C64.3717 0.553265 65.8092 0.700282 66.8111 0.994316C67.8239 1.28835 68.5807 1.71307 69.0817 2.26846C69.5935 2.82386 69.9366 3.49905 70.1108 4.29403C70.2959 5.07812 70.3885 6.29782 70.3885 7.95312V10.2564C70.3885 11.9444 70.2143 13.175 69.8658 13.9482C69.5173 14.7214 68.8748 15.3149 67.9382 15.7287C67.0126 16.1425 65.7983 16.3494 64.2955 16.3494H62.4496V27H55.5724V0.553265ZM62.4496 5.07812V11.8082C62.6456 11.8191 62.8144 11.8246 62.956 11.8246C63.5876 11.8246 64.0232 11.6721 64.2628 11.3672C64.5133 11.0514 64.6385 10.4034 64.6385 9.42329V7.25071C64.6385 6.34683 64.4969 5.75876 64.2138 5.4865C63.9306 5.21425 63.3426 5.07812 62.4496 5.07812ZM72.3161 21.6094V27H67.3338V21.6094H72.3161ZM90.3502 12.0859H83.473V7.4794C83.473 6.13991 83.3968 5.30682 83.2443 4.98011C83.1028 4.64252 82.7815 4.47372 82.2805 4.47372C81.7143 4.47372 81.3549 4.67519 81.2024 5.07812C81.05 5.48106 80.9737 6.35227 80.9737 7.69176V19.9759C80.9737 21.2609 81.05 22.0994 81.2024 22.4915C81.3549 22.8835 81.6979 23.0795 82.2315 23.0795C82.7434 23.0795 83.0755 22.8835 83.228 22.4915C83.3913 22.0994 83.473 21.1792 83.473 19.7308V16.4148H90.3502V17.4439C90.3502 20.1773 90.1541 22.1158 89.7621 23.2592C89.3809 24.4027 88.5261 25.4046 87.1975 26.2649C85.8797 27.1252 84.2517 27.5554 82.3132 27.5554C80.2985 27.5554 78.6378 27.1906 77.331 26.4609C76.0242 25.7313 75.1584 24.724 74.7337 23.4389C74.309 22.143 74.0966 20.1991 74.0966 17.6072V9.88068C74.0966 7.9749 74.1619 6.54829 74.2926 5.60085C74.4233 4.64252 74.8099 3.7223 75.4524 2.8402C76.1058 1.95809 77.0043 1.26657 78.1477 0.765623C79.3021 0.253786 80.6252 -0.00213264 82.1172 -0.00213264C84.1428 -0.00213264 85.8144 0.389913 87.1321 1.174C88.4498 1.95809 89.3156 2.93821 89.7294 4.11434C90.1432 5.27959 90.3502 7.09825 90.3502 9.57031V12.0859ZM108.531 16.0391C108.531 18.6963 108.466 20.5803 108.335 21.6911C108.215 22.791 107.823 23.7983 107.159 24.7131C106.506 25.6278 105.618 26.3303 104.496 26.8203C103.375 27.3104 102.068 27.5554 100.576 27.5554C99.1603 27.5554 97.8861 27.3267 96.7536 26.8693C95.6319 26.401 94.728 25.7041 94.0419 24.7784C93.3558 23.8527 92.9475 22.8454 92.8168 21.7564C92.6861 20.6674 92.6207 18.7616 92.6207 16.0391V11.5142C92.6207 8.85701 92.6806 6.97845 92.8004 5.87855C92.9311 4.76775 93.3232 3.75497 93.9766 2.8402C94.6409 1.92542 95.5339 1.22301 96.6555 0.732953C97.7772 0.242896 99.0841 -0.00213264 100.576 -0.00213264C101.992 -0.00213264 103.26 0.232006 104.382 0.700282C105.515 1.15767 106.424 1.84919 107.11 2.77486C107.796 3.70052 108.205 4.70786 108.335 5.79687C108.466 6.88589 108.531 8.79167 108.531 11.5142V16.0391ZM101.654 7.34872C101.654 6.11813 101.583 5.33404 101.442 4.99645C101.311 4.64796 101.033 4.47372 100.609 4.47372C100.249 4.47372 99.9716 4.61529 99.7756 4.89844C99.5904 5.17069 99.4979 5.98745 99.4979 7.34872V19.6982C99.4979 21.2337 99.5578 22.1811 99.6776 22.5405C99.8082 22.8999 100.102 23.0795 100.56 23.0795C101.028 23.0795 101.327 22.8726 101.458 22.4588C101.589 22.045 101.654 21.0594 101.654 19.5021V7.34872Z" fill="white"/>
</svg>
